<svg viewBox="0 0 374.99 159.41" xmlns="http://www.w3.org/2000/svg"><path d="M95.18 147.2a3.49 3.49 0 0 1-1.66 1.22 5 5 0 0 1-1 .28 5.06 5.06 0 0 1-.18-1.06 3.62 3.62 0 0 1 .39-2 4 4 0 0 1 2.73-1.55 4.06 4.06 0 0 1-.28 3.11zm3.42-46.82 5.15-4a5.89 5.89 0 0 1 2.11-1.05L111 94l-4.36 5.63a3.53 3.53 0 0 1-3.19 1.35zm46.71 31.89-2.09 7.92a2.58 2.58 0 0 1-2.28 1.92l-6.4.55a.6.6 0 0 1-.57-.87l2.08-4.06 8.16-6.21a.7.7 0 0 1 1.1.75zm64.53-39.81a5.32 5.32 0 0 1 .17-1 5.66 5.66 0 0 1 1 .28 3.47 3.47 0 0 1 1.67 1.22 4.13 4.13 0 0 1 .25 3.16 4 4 0 0 1-2.73-1.56 3.46 3.46 0 0 1-.36-2.1zm-52.63 5.15 1.95-3.44 10.33-18.25c.45.26.9.53 1.33.81l2.85-5c15.36 8.86 20.17 29.52 10.74 46.16a36.73 36.73 0 0 1-8 9.8 34.54 34.54 0 0 1-22 12.26l2 1.3a3.78 3.78 0 0 1 1.6 2.12l1.08 3.55-10 1.82-2-4.66a1 1 0 0 1 .64-1.39 4.78 4.78 0 0 0 3.1-3l.58-1.66a49.67 49.67 0 0 1-1.61-16.13l-20.61-.06-3.65 23-21.91-3.54a28.39 28.39 0 0 1 9.52-17.09l21.34-18.32a30.25 30.25 0 0 1 18.67-6.41h3c.36-.61.69-1.24 1.05-1.87zm-44.84 8.71.68-2.92a3.75 3.75 0 0 1 2.54-2.73l1.22-.37 2.07 3.55a2.37 2.37 0 0 1-.55 3l-1.84 1.51zM87.46 67.25c10.72-12.16 29.8-14 44.31-3.83a35.38 35.38 0 0 1 15.27 30c-.8.18-1.61.33-2.42.47v2a48.21 48.21 0 0 1-22.34-.24l-2.58-4.79-5.9 2.51-2.34-.64-11.56-8.19-17.07-12a30.33 30.33 0 0 1 4.63-5.29zm-15.56 37a5.53 5.53 0 0 1 .17-1.06 5 5 0 0 1 1 .28 3.49 3.49 0 0 1 1.66 1.22 4.06 4.06 0 0 1 .25 3.15 4 4 0 0 1-2.73-1.55 3.54 3.54 0 0 1-.35-2.01zm-11.29 5.44a5.51 5.51 0 0 1 .79-.72 3.46 3.46 0 0 1 1.91-.76 4 4 0 0 1 2.77 1.47 4 4 0 0 1-2.76 1.49 3.44 3.44 0 0 1-1.92-.75 5.16 5.16 0 0 1-.79-.71zm-2.49-17 .49 7.72-14.74-8.85-.49-7.71z" fill="none"/><path d="M232.84 88.54c.23-.66.47-1.3.71-2a137.18 137.18 0 0 0-5.66 13.7 133.91 133.91 0 0 0-6.72 59.13H228a133.18 133.18 0 0 1 4.84-70.83z" fill="#c14f29"/><path d="M233.55 86.58c-.24.66-.48 1.3-.71 2a133.18 133.18 0 0 0-4.84 70.83h3.51l-.07-.3-.58-3.18c-.07-.37-.14-.74-.2-1.1-.13-.7-.26-1.39-.38-2.09l-.45-3.39 1.24-.17.42 3.15c.09.63.21 1.27.33 1.89l.15.87 1.78-.33c-.05-.28-.1-.57-.16-.85-.11-.61-.23-1.24-.32-1.87l-.41-3.1 1.24-.16.44 3.28c.1.66.22 1.31.34 2l.21 1.12.56 3.08.28 1.19h3.57a121.75 121.75 0 0 1 3.91-67.1C263 36.4 319 4 375 12.75V1.29c-60-8.54-119.67 25.93-141.45 85.29zM330.6 6.2l3.16-.59 1.09-.2c.69-.13 1.37-.26 2.07-.37l3.35-.46.17 1.25-3.12.42c-.63.09-1.26.21-1.87.33l-.86.16.32 1.8.83-.16c.61-.12 1.24-.24 1.87-.33l3.06-.41.17 1.25-3.26.44-1.93.35-1.12.21-3 .56-3.2.76L328 10l3-.72c.61-.13 1.22-.24 1.84-.35l.84-.16-.31-1.77-.83.15-1.89.37-3.07.72L327.3 7zM313 11.29l4.55-1.55c.92-.33 1.86-.61 2.78-.87l3.56-1 .32 1.22h-.17l-2 .59c-1.15.32-2.34.66-3.49 1l.55 1.73c1.13-.37 2.29-.7 3.42-1l2-.58h.18L325 12l-3.47 1c-.88.25-1.78.51-2.65.83l-4.4 1.5-1.62.64-.44-1.18 1.53-.6 4-1.36-.56-1.73-4 1.37-1.55.62-.55-1.09zm-11.58 4.92.17-.07.16-.09 2-.92c1.32-.61 2.7-1.24 4.07-1.81l.17-.07.47 1.17-.17.07c-1.18.48-2.36 1-3.51 1.55l-1.73.79.77 1.65 1.73-.79c1.12-.51 2.28-1 3.44-1.52l.17-.07.47 1.16-.17.07c-1.3.55-2.61 1.15-3.88 1.73l-2.16 1-5.33 2.73-.59-1.11 5.2-2.68-.78-1.64-5.27 2.7-.59-1.06 5.32-2.73zm-68.96 129.27v-.19c-.05-.7-.11-1.39-.17-2.09-.11-1.17-.21-2.39-.27-3.59l-1.8.1c.06 1.22.16 2.46.27 3.67.06.7.13 1.4.18 2.1v.18l-1.24.13v-.19l-.18-2.11c-.11-1.22-.22-2.47-.28-3.72v-.36l-.18-5v-1.92H230v1.68l.15 4.3 1.8-.09-.15-4.23v-1.66h1.25v1.86l.18 5v.06c0 1.24.16 2.51.27 3.73.07.7.13 1.39.18 2.08v.18zm1.67-29.11c-.08.75-.17 1.5-.25 2.24-.15 1.31-.31 2.66-.41 4 0 .75-.09 1.5-.14 2.24-.09 1.32-.18 2.68-.21 4v.15h-1.25v-.18c0-1.27.11-2.56.2-3.81l.12-1.89-1.8-.14-.12 1.92c-.09 1.26-.18 2.57-.2 3.86v.19h-1.25v-.19c0-1.4.12-2.82.22-4.2.05-.75.1-1.51.14-2.27.11-1.39.27-2.81.43-4.18.08-.75.17-1.5.25-2.25v-.19l1.24.17v.18c-.08.69-.15 1.39-.23 2.08-.14 1.21-.28 2.45-.4 3.67l1.8.16c.11-1.19.25-2.4.38-3.57l.24-2.1v-.19l1.24.17zm2.39-13-1.31 6.11-.53 3.28-1.23-.2.5-3.1c.12-.61.25-1.23.38-1.84.07-.29.13-.57.19-.85l-1.77-.38-.18.85c-.14.63-.27 1.26-.4 1.88l-.51 3.14-1.23-.2.55-3.39 1.36-6.33.88-3.3 1.21.33-.82 3.06c-.15.62-.28 1.25-.41 1.87-.06.29-.12.58-.19.87l1.77.39.18-.86c.13-.61.26-1.22.4-1.84l.81-3 1.21.33zm3.61-12.26-1.84 5.73-1.2-.37 1.8-5.6-1.7-.6-1.83 5.73-1.19-.37 1.83-5.76.07-.16.06-.18.78-2c.53-1.41 1.06-2.83 1.62-4.24l.06-.17 1.16.48-.07.17c-.47 1.2-.93 2.42-1.38 3.63-.23.59-.45 1.18-.68 1.78l1.7.62.69-1.83c.44-1.17.88-2.34 1.34-3.5l.07-.17 1.15.48zm9-20c-.84 1.48-1.7 3-2.44 4.59l-.53 1c-.74 1.49-1.51 3-2.15 4.6l-.08.17-1.11-.47.07-.17c.15-.31.28-.63.42-1 .24-.57.5-1.17.79-1.73l1.23-2.46-1.61-.83-1.25 2.51c-.29.57-.55 1.17-.8 1.75l-.42 1-.08.17-1.17-.46.07-.16c.67-1.64 1.47-3.25 2.25-4.8l.52-1c.78-1.65 1.68-3.25 2.56-4.8l.6-1.06 1.08.63-.09.16-.78 1.38c-.68 1.2-1.38 2.43-2 3.7l1.6.83c.6-1.24 1.28-2.45 1.95-3.62.26-.46.52-.92.77-1.38l.09-.16 1.08.63zm9.49-14.49a123.17 123.17 0 0 0-7 10.29l-.1.16-1.06-.66 1.75-2.8c.45-.71.91-1.45 1.41-2.15l-1.48-1c-.52.71-1 1.47-1.45 2.2l-1.77 2.82-1.06-.66.1-.16A127.1 127.1 0 0 1 255.23 54l.12-.15 1 .78-.12.14c-.86 1.06-1.65 2.19-2.41 3.29q-.48.7-1 1.38l1.48 1 1-1.37c.75-1.08 1.52-2.2 2.37-3.24l.11-.14 1 .77zm10.66-12.3-1.65 1.74c-1 1-2 2-2.9 3.12l-1.36 1.59c-.8.92-1.62 1.87-2.4 2.84l-.12.14-1-.8.11-.14c.79-1 1.63-2 2.44-2.88.41-.48.83-1 1.24-1.45l-1.34-1.22-1.23 1.44c-.84 1-1.7 2-2.51 3l-.11.15-1-.8.12-.14c.82-1 1.69-2 2.53-3l1.24-1.44.11-.12.12-.14c.95-1.07 2-2.12 2.93-3.14l1.66-1.74.13-.14.88.89-4.09 4.32 1.33 1.22 4-4.25.88.89zm12.22-10.68-1 .76c-1.29 1-2.62 2.05-3.86 3.17l-2.36 2c-.5.43-1 .9-1.46 1.36-.27.26-.53.52-.81.77l-.13.12-.85-.92.13-.12.75-.72c.45-.43.91-.87 1.39-1.29l2.1-1.77-1.17-1.38-2.11 1.82c-.48.43-.95.88-1.4 1.31l-.76.73-.14.13-.82-.91.13-.13.82-.78c.49-.48 1-1 1.54-1.42l2.42-2.11c1.3-1.17 2.69-2.26 4-3.32l1-.75.15-.11.75 1-.14.11-1.33 1.05c-1.05.82-2.14 1.67-3.15 2.57l1.16 1.39c1-.89 2.06-1.72 3.09-2.52.45-.35.89-.69 1.32-1l.15-.12.76 1zm8.16-5.8c-1.31.8-2.59 1.72-3.82 2.6l-1.3.92-.15.11-.73-1 .15-.11c.52-.35 1-.72 1.55-1.09 1-.72 2-1.47 3.11-2.13l-1-1.53c-1.08.67-2.14 1.43-3.16 2.17-.52.37-1 .75-1.57 1.11l-.14.1-.73-1 .15-.11 1.33-.94c1.28-.92 2.61-1.87 4-2.7l.83-.53c1.5-1 3.06-2 4.65-2.84l.16-.09.62 1.09-.16.09-.91.52c-.54.31-1.11.63-1.64 1l-2.35 1.51 1 1.53 2.26-1.52c.53-.34 1.08-.66 1.62-1l.9-.52.16-.09.63 1.09-.17.09c-1.53.84-3 1.8-4.47 2.73zm70.78-21.23h.18c1.26 0 2.54.11 3.77.19.62.05 1.25.09 1.88.12l.14-1.81L364.5 5c-1.25-.09-2.54-.18-3.82-.2h-.18V3.54h.18c1.39 0 2.79.12 4.16.22l2.25.14c1.38.11 2.78.27 4.14.43l2.23.26h.19l-.16 1.25h-.18l-2-.23-3.68-.41-.14 1.8 3.57.39 2 .23h.19l-.17 1.24H373l-2.22-.26c-1.3-.15-2.63-.31-4-.41l-2.22-.14c-1.3-.09-2.65-.18-4-.21h-.19zm-3.64-3.13h.2v1.27h-1.66l-4.26.15.09 1.82 4.19-.15H357v1.26h-1.83l-4.94.17h-.06c-1.23.05-2.49.17-3.71.28l-2 .17h-.18l-.12-1.26h.19c.69 0 1.38-.12 2.07-.18 1.16-.11 2.36-.21 3.55-.27l-.09-1.82c-1.22.06-2.45.17-3.64.28l-2.08.18h-.18l-.13-1.26h.15l2.07-.12c1.21-.11 2.45-.22 3.69-.28h.37l4.95-.18h1.11z" fill="#fff"/><path d="M234.15 156.84c-.05-.29-.1-.58-.16-.86l-1.77.33.15.85c.12.64.23 1.27.36 1.9l.08.35h1.86l-.17-.72c-.13-.62-.24-1.24-.35-1.85z" fill="#fff"/><path d="M243.43 92.31a121.75 121.75 0 0 0-3.91 67.1h4.53a117.33 117.33 0 0 1 9.45-79.58A115.55 115.55 0 0 1 375 17.24v-4.49C319 4 263 36.4 243.43 92.31z" fill="#d4e2fc"/><path d="m364.56 8.09 2.22.14c1.32.1 2.65.26 4 .41l2.22.26h.17l.17-1.24h-.19l-2-.23-3.66-.43.15-1.82 3.68.41 2 .23h.18l.16-1.25h-.19l-2.23-.26c-1.36-.16-2.76-.32-4.14-.43l-2.25-.14c-1.37-.1-2.77-.19-4.16-.22h-.18v1.26h.18c1.28 0 2.57.11 3.82.2l1.91.12-.14 1.81c-.63 0-1.26-.07-1.88-.12-1.23-.08-2.51-.17-3.77-.19h-.18v1.26h.19c1.27.05 2.62.14 3.92.23zm-14.43-4.44h-.37c-1.24.06-2.48.17-3.69.28l-2.07.2h-.19l.13 1.26h.18l2.08-.18c1.19-.11 2.42-.22 3.64-.28l.09 1.82c-1.19.06-2.39.16-3.55.27-.69.06-1.38.13-2.07.18h-.19l.12 1.26h.18l2-.17c1.22-.11 2.48-.23 3.71-.28h.06l4.92-.18H357V6.57h-1.64l-4.19.15-.09-1.82 4.26-.15H357V3.48h-1.9zm-19.48 3.84 1.89-.37.83-.15.33 1.79-.84.16c-.62.11-1.23.22-1.84.35L328 10l.29 1.22 3.2-.76 3-.56 1.12-.21 1.93-.35 3.26-.44-.17-1.25-3.06.41c-.63.09-1.26.21-1.87.33l-.83.16-.32-1.8.86-.16c.61-.12 1.24-.24 1.87-.33l3.12-.42-.17-1.25-3.31.41c-.7.11-1.38.24-2.07.37l-1.09.2-3.16.59-3.3.84.28 1.22zm-17.36 5.02 4-1.37.56 1.73-4 1.36-1.53.6.44 1.18 1.62-.64 4.4-1.5c.87-.32 1.77-.58 2.65-.83L325 12l-.32-1.22h-.18l-2 .58c-1.13.32-2.29.65-3.42 1l-.55-1.73c1.15-.38 2.34-.72 3.49-1l2-.59h.17l-.32-1.22-3.56 1c-.92.26-1.86.54-2.78.87l-4.53 1.6-1.67.66.45 1.18zm-16.64 7.55 5.27-2.7.78 1.64-5.2 2.67.59 1.11 5.33-2.73 2.16-1c1.27-.58 2.58-1.18 3.88-1.73l.17-.07-.47-1.16-.17.07c-1.16.48-2.32 1-3.44 1.52l-1.73.79-.77-1.65 1.73-.79c1.15-.52 2.33-1.07 3.51-1.55l.17-.07-.46-1.15-.17.07c-1.37.57-2.75 1.2-4.07 1.81l-2 .92-.16.09-.17.07-5.37 2.78zM295 24.58l.17-.09-.63-1.09-.16.09-.9.52c-.54.3-1.09.62-1.62 1l-2.31 1.48-1-1.53 2.35-1.51c.53-.35 1.1-.67 1.64-1l.91-.52.16-.09-.61-1.11-.16.09c-1.59.87-3.15 1.87-4.65 2.84l-.83.53c-1.36.83-2.69 1.78-4 2.7l-1.33.94-.15.11.73 1 .14-.1c.53-.36 1.05-.74 1.57-1.11 1-.74 2.08-1.5 3.16-2.17l1 1.53c-1.07.66-2.11 1.41-3.11 2.13-.51.37-1 .74-1.55 1.09l-.15.11.73 1 .15-.11 1.3-.92c1.23-.88 2.51-1.8 3.82-2.6l.82-.53c1.44-.88 2.93-1.84 4.51-2.68zm-14.12 7.94-.15.12c-.43.35-.87.69-1.32 1-1 .8-2.09 1.63-3.09 2.52l-1.16-1.39c1-.9 2.1-1.75 3.15-2.57l1.33-1.05.14-.11-.75-1-.15.11-1 .75c-1.35 1.06-2.74 2.15-4 3.32l-2.42 2.11c-.54.45-1 .94-1.54 1.42l-.82.78-.13.13.85.92.14-.13.76-.73c.45-.43.92-.88 1.4-1.31l2.11-1.82L275.4 37l-2.07 1.8c-.48.42-.94.86-1.39 1.29l-.75.72-.13.12.85.92.13-.12c.28-.25.54-.51.81-.77.47-.46 1-.93 1.46-1.36l2.36-2c1.24-1.12 2.57-2.16 3.86-3.17l1-.76.14-.11zM264.51 47.6l-1.33-1.22 4.09-4.32-.88-.89-.13.14-1.66 1.74c-1 1-2 2.07-2.93 3.14l-.12.14-.11.12-1.24 1.44c-.84 1-1.71 2-2.53 3l-.12.14 1 .8.11-.15c.81-1 1.67-2 2.51-3l1.23-1.44 1.34 1.22c-.41.49-.83 1-1.24 1.45-.81.93-1.65 1.9-2.44 2.88l-.11.14 1 .8.12-.14c.78-1 1.6-1.92 2.4-2.84l1.36-1.59c.93-1.07 1.93-2.11 2.9-3.12l1.65-1.74.12-.13-.88-.89zm-6.85 8.29c-.85 1-1.62 2.16-2.37 3.24l-1 1.37-1.48-1q.48-.68 1-1.38c.76-1.1 1.55-2.23 2.41-3.29l.12-.14-1-.78-.12.15A127.1 127.1 0 0 0 248 64.68l-.1.16 1.06.66 1.77-2.82c.46-.73.93-1.49 1.45-2.2l1.48 1c-.5.7-1 1.44-1.41 2.15l-1.75 2.8 1.06.66.1-.16a123.17 123.17 0 0 1 7-10.29l.11-.15-1-.77zm-9.07 13.73c-.25.46-.51.92-.77 1.38-.67 1.17-1.35 2.38-1.95 3.62l-1.6-.83c.6-1.27 1.3-2.5 2-3.7l.78-1.38.09-.16-1.14-.63-.6 1.06c-.88 1.55-1.78 3.15-2.56 4.8l-.52 1c-.78 1.55-1.58 3.16-2.25 4.8l-.07.16 1.13.52.08-.17.42-1c.25-.58.51-1.18.8-1.75l1.25-2.51 1.61.83-1.23 2.46c-.29.56-.55 1.16-.79 1.73-.14.32-.27.64-.42 1l-.07.17 1.14.52.08-.17c.64-1.57 1.41-3.11 2.15-4.6l.53-1c.74-1.57 1.6-3.11 2.44-4.59l.6-1.07-1.08-.63zm-7.24 14.79c-.46 1.16-.9 2.33-1.34 3.5l-.69 1.83-1.7-.62c.23-.6.45-1.19.68-1.78.45-1.21.91-2.43 1.38-3.63l.07-.17-1.16-.48-.06.17c-.56 1.41-1.09 2.83-1.62 4.24l-.78 2-.06.18-.07.16-1.84 5.73 1.19.37 1.83-5.68 1.7.6-1.8 5.6 1.2.37 1.84-5.73 2.44-6.41-1.15-.48zm-5.99 18.47c-.14.62-.27 1.23-.4 1.84l-.18.86-1.77-.39c.07-.29.13-.58.19-.87.13-.62.26-1.25.41-1.87l.82-3.06-1.21-.33-.88 3.3-1.34 6.33-.55 3.39 1.23.2.51-3.14c.13-.62.26-1.25.4-1.88l.18-.85 1.77.38c-.06.28-.12.56-.19.85-.13.61-.26 1.23-.38 1.84l-.5 3.1 1.23.2.53-3.28 1.31-6.11.86-3.2-1.21-.33zm-2.47 13.33-.24 2.1c-.13 1.17-.27 2.38-.38 3.57l-1.8-.16c.12-1.22.26-2.46.4-3.67.08-.69.15-1.39.23-2.08v-.18l-1.24-.17v.19c-.08.75-.17 1.5-.25 2.25-.16 1.37-.32 2.79-.43 4.18 0 .76-.09 1.52-.14 2.27-.1 1.38-.19 2.8-.22 4.2v.19h1.25v-.19c0-1.29.11-2.6.2-3.86l.12-1.92 1.8.14-.12 1.89c-.09 1.25-.17 2.54-.2 3.81v.23h1.25v-.19c0-1.33.12-2.69.21-4 0-.74.1-1.49.14-2.24.1-1.32.26-2.67.41-4 .08-.74.17-1.49.25-2.24v-.18l-1.24-.17zm.62 26.88c-.11-1.22-.22-2.49-.27-3.73v-.06l-.18-5v-1.86h-1.25v1.66l.15 4.23-1.8.09-.15-4.3v-1.68h-1.25v1.92l.18 5v.36c.06 1.25.17 2.5.28 3.72l.18 2.11v.19l1.24-.13v-.18c-.05-.7-.12-1.4-.18-2.1a89.22 89.22 0 0 1-.27-3.67l1.8-.1c.06 1.2.16 2.42.27 3.59.06.7.12 1.39.17 2.09v.19l1.24-.13v-.18c-.03-.64-.09-1.33-.16-2.03zm1.6 12.05-.21-1.14c-.12-.65-.24-1.3-.34-2l-.44-3.28-1.24.16.41 3.1c.09.63.21 1.26.32 1.87.06.28.11.57.16.85l-1.78.33-.15-.87c-.12-.62-.24-1.26-.33-1.89l-.42-3.15-1.24.17.45 3.39c.12.7.25 1.39.38 2.09.06.36.13.73.2 1.1l.58 3.18.07.3h1.28l-.08-.35c-.13-.63-.24-1.26-.36-1.9l-.15-.85L234 156c.06.28.11.57.16.86.11.61.22 1.23.35 1.85l.17.72H236l-.28-1.19z" fill="#a0bff9"/><path d="m339.73 87.23-4.93 6.82a44.66 44.66 0 0 1 8.41-3.77l-1.45-7.85a11.73 11.73 0 0 1-2.03 4.8zm24.83-2.54-7.69 3.43a43.67 43.67 0 0 1 14.6 2.54c1.21.43 2.38.92 3.52 1.44V71l-5.13 8.88a11.58 11.58 0 0 1-5.3 4.81zM319 97l-.17-.19a11.61 11.61 0 0 1 .62 5.17l-.27 2.55-.61 5.8a43.94 43.94 0 0 1 5.39-7.48z" fill="#333"/><path d="M253.5 79.83a117.33 117.33 0 0 0-9.45 79.58h27.71a25.82 25.82 0 0 1 4.74-5.41l.49-.38-7.41 1.38-1.33.25-17.81 3.36-1.87.35a1.74 1.74 0 0 1-2-1.4 1.77 1.77 0 0 1 .29-1.32l1.17-1.68a17.11 17.11 0 0 0 3.05-9l-.62 12.88 1.09-22.65a11.63 11.63 0 0 1 2.52-6.72l7.21-9.11a25.88 25.88 0 0 1 15.48-9.37l.62-.09-27-9.62-.28-.1a1.75 1.75 0 0 1-1.1-2.23 1.77 1.77 0 0 1 .9-1l1.85-.87a17 17 0 0 0 7.09-6.23L252 101.29l12.15-19.07a11.6 11.6 0 0 1 5.52-4.55l10.76-4.25a25.65 25.65 0 0 1 18-.3c.2.07.38.16.58.24l-5.79-6.82-11.78-13.9-.28-.33-1-1.13a1.75 1.75 0 0 1 .19-2.46 1.73 1.73 0 0 1 1.27-.41l2 .18a16.69 16.69 0 0 0 9.23-1.82l-11.35 5.9 20-10.38a11.42 11.42 0 0 1 7-1.15l11.5 1.75a25.83 25.83 0 0 1 15.78 8.84c.14.16.25.34.38.5l-5-26.81-.28-1.5v-.1l-.06-.29a1.73 1.73 0 0 1 2.69-1.75l1.67 1.19a16.88 16.88 0 0 0 8.9 3.08l-12.76-.62 22.43 1.09a11.53 11.53 0 0 1 6.71 2.58l9 7.28a25.86 25.86 0 0 1 5.54 6.13V17.24a115.55 115.55 0 0 0-121.5 62.59zm55.16 67.79h-.2l-1.44.27a11.26 11.26 0 0 1 1.64.42 11.87 11.87 0 0 1 1.6.69l.1.06c.22.12.45.24.66.37s.41.27.61.41l.13.1 6.78 5a45.33 45.33 0 0 1-3.76-8.49l-3.28.61zm.34-25.87-2.8-1a11.62 11.62 0 0 1 2.72 3.39c.11.2.2.4.29.61l.09.17 3.36 7.67a45 45 0 0 1 1-9.19z" fill="#333"/><path d="M258.87 90.45a17 17 0 0 1-7.09 6.23l-1.85.87a1.77 1.77 0 0 0-.9 1 1.75 1.75 0 0 0 1.05 2.22l.28.1a9.21 9.21 0 0 0 1.6.42zM256.21 101l4.45-1.58s5.44-2.15 8.75-2.07c3 .06 6.29 1.7 9.59 2.35 3.07.6 5.66-.05 9.66 1.38s5.62 3.57 8.39 5c3 1.58 6.53 2.38 8.93 4.24 1.94 1.51 4 4.69 5 6.25a44.63 44.63 0 0 1 8.26-12.1l.27-2.55a11.61 11.61 0 0 0-.62-5.17l-11.56-13.59-8.33-9.8c-.2-.08-.38-.17-.58-.24a25.65 25.65 0 0 0-18 .3l-10.76 4.25a11.6 11.6 0 0 0-5.52 4.55L252 101.29a9.49 9.49 0 0 0 1.39.14 8.24 8.24 0 0 0 2.82-.43zm51.64 1.51a9.6 9.6 0 0 1-7.35 1.13l11.88-7.08a9.77 9.77 0 0 1-4.53 5.93zm-1.48-15.71a14.81 14.81 0 0 1-10.91 13.4zM296 80.33a14.89 14.89 0 0 1-5.72 16.35zm-9.21 7.1a13.93 13.93 0 0 1-2.69 8.7l-.17-17.34a13.94 13.94 0 0 1 2.86 8.64zm-8.61.68a9.84 9.84 0 0 1-.17 7.5l-4.85-13a9.7 9.7 0 0 1 5.02 5.5zm30.77 33.64-2.79-1z" fill="#ffcf70"/><path d="m294.52 113.69 10 5.87a12.78 12.78 0 0 1 1.65 1.19l2.8 1c.11-.36.21-.72.34-1.07.25-.71.51-1.4.79-2.09s.57-1.33.87-2c-1-1.56-3-4.74-5-6.25-2.4-1.86-6-2.66-8.93-4.24-2.77-1.48-4.39-3.63-8.39-5s-6.59-.78-9.66-1.38c-3.3-.65-6.57-2.29-9.59-2.35-3.31-.08-8.75 2.07-8.75 2.07l-4.44 1.56a8.24 8.24 0 0 1-2.86.45 9.49 9.49 0 0 1-1.39-.14 9.21 9.21 0 0 1-1.6-.42l27 9.62a25.68 25.68 0 0 1 17.16 3.18zm1.24-24.26a13.93 13.93 0 0 0 .24-9.1l-5.72 16.35a13.83 13.83 0 0 0 5.48-7.25zm-8.97-2a13.94 13.94 0 0 0-2.86-8.64l.17 17.34a13.93 13.93 0 0 0 2.69-8.7zm16.27 7.82a13.87 13.87 0 0 0 3.31-8.47l-10.91 13.4a13.77 13.77 0 0 0 7.6-4.93zm-24.88-7.14a9.7 9.7 0 0 0-5-5.53l4.85 13a9.84 9.84 0 0 0 .15-7.47zm29.67 14.38a9.77 9.77 0 0 0 4.53-5.95l-11.88 7.08a9.6 9.6 0 0 0 7.35-1.13z" fill="#ffc043"/><path d="m250.44 158.43.62-12.88a17.11 17.11 0 0 1-3.05 9l-1.17 1.68a1.77 1.77 0 0 0-.29 1.32 1.74 1.74 0 0 0 2 1.4l1.87-.35-1.59.29a9.33 9.33 0 0 0 1.61-.46z" fill="#ffcf70"/><path d="m254 156 3-3.6s3.65-4.61 6.55-6.21c2.65-1.47 6.3-1.7 9.47-2.8 3-1 4.89-2.9 9.06-3.69s6.63.26 9.76.15c3.36-.13 6.84-1.24 9.83-.83a20.19 20.19 0 0 1 5.4 1.87 44.75 44.75 0 0 1 1.34-17.49c.15.24.3.49.43.74a11.62 11.62 0 0 0-2.72-3.39 12.78 12.78 0 0 0-1.65-1.19l-10-5.87a25.68 25.68 0 0 0-17.16-3.2l-.62.09a25.88 25.88 0 0 0-15.43 9.42l-7.21 9.11a11.63 11.63 0 0 0-2.52 6.72l-1.09 22.65a8.79 8.79 0 0 0 1.28-.59A8 8 0 0 0 254 156zm27.38-20.91-3.15-17a14.94 14.94 0 0 1 3.15 17zm10.35-7.69a13.84 13.84 0 0 1-4.14 8.1l2.82-17.11a13.92 13.92 0 0 1 1.29 9.02zm7.74 3.85a9.65 9.65 0 0 1-5.8 4.69l6.78-12.12a9.87 9.87 0 0 1-1.01 7.44zm-25.7-2.41a13.87 13.87 0 0 1 2 8.89L267 122.8a13.84 13.84 0 0 1 6.74 6.05zm-7.12 4.93a9.78 9.78 0 0 1 3.57 6.58l-10.65-8.84a9.57 9.57 0 0 1 7.05 2.27zm-16.21 24.8 17.81-3.35 1.33-.25zm58.73-33.82.09.17 3.36 7.67-3.36-7.67z" fill="#ffcf70"/><path d="M293.45 147.68H305a12.35 12.35 0 0 1 2 .2l1.44-.27c-.15-.52-.28-1-.41-1.58 0-.11-.05-.22-.08-.33-.1-.44-.2-.89-.29-1.34 0-.08 0-.16-.05-.24q-.15-.75-.27-1.5v-.1c-.09-.55-.17-1.11-.24-1.66a20.19 20.19 0 0 0-5.4-1.87c-3-.41-6.47.7-9.83.83-3.13.11-5.6-.93-9.76-.15s-6.1 2.66-9.06 3.69c-3.17 1.1-6.82 1.33-9.47 2.8-2.9 1.6-6.55 6.21-6.55 6.21L254 156a8 8 0 0 1-2.25 1.83 8.79 8.79 0 0 1-1.28.59 9.33 9.33 0 0 1-1.59.44l1.59-.29 19.11-3.57 7.42-1.39a25.75 25.75 0 0 1 16.45-5.93zm-15.25-29.63 3.15 17a14.94 14.94 0 0 0-3.15-17zm-4.46 10.8a13.84 13.84 0 0 0-6.75-6l8.73 14.94a13.87 13.87 0 0 0-1.98-8.94zm13.82 6.66a15 15 0 0 0 2.82-17.11zm-20.94-1.73a9.57 9.57 0 0 0-7.08-2.26l10.65 8.84a9.78 9.78 0 0 0-3.57-6.58zm27.02 2.22a9.65 9.65 0 0 0 5.8-4.69 9.87 9.87 0 0 0 1-7.43z" fill="#ffc043"/><path d="M308.66 148.35a11.26 11.26 0 0 0-1.64-.42 12.35 12.35 0 0 0-2-.2h-11.55a25.75 25.75 0 0 0-16.45 5.9l-.49.38a25.82 25.82 0 0 0-4.74 5.44h22.5l-2.06-5.55a13.19 13.19 0 0 1 4.91 5.55h6.52l-.05-5.92a9.6 9.6 0 0 1 2.77 5.92h7.35a45.14 45.14 0 0 1-5.07-11.1zm2.34 1.12c-.21-.13-.44-.25-.66-.37.25.12.48.24.66.37zm.64.41.13.1 6.78 5-6.78-5zm-1.37-.88a11.87 11.87 0 0 0-1.6-.69 11.87 11.87 0 0 1 1.6.69z" fill="#ffcf70"/><path d="m292.2 153.86 2.06 5.55h2.85a13.19 13.19 0 0 0-4.91-5.55zm11.43 5.55h2.72a9.6 9.6 0 0 0-2.77-5.92zm15.59-54.91a44.63 44.63 0 0 0-8.22 12.1c-.3.66-.59 1.32-.87 2 .28-.67.57-1.33.87-2 .34.55.54.91.54.91l2.48 4c.32-1.25.68-2.51 1.12-3.75a44.86 44.86 0 0 1 3.47-7.56l.61-5.8z" fill="#ffc043"/><path d="M311.5 117.51s-.2-.36-.54-.91c-.3.66-.59 1.32-.87 2s-.54 1.38-.79 2.09c-.13.35-.23.71-.34 1.07l4.64 1.65c.13-.6.27-1.19.42-1.79z" fill="#ff6937"/><path d="m308.66 147.62-.2.04zm.51-22.87c-.09-.21-.18-.41-.29-.61s-.28-.5-.43-.74a44.75 44.75 0 0 0-1.34 17.49c1.67.79 2.93 1.53 2.93 1.53l4.16 2.26h.07a44.7 44.7 0 0 1-1.65-12.12l-3.36-7.67zm-.71 22.89c-.15-.52-.28-1-.41-1.58.13.53.26 1.06.41 1.58zm-.46-1.91c-.1-.44-.2-.89-.29-1.34.06.45.16.9.29 1.34zm-.37-1.58q-.15-.75-.27-1.5.12.75.27 1.5zm-.28-1.6z" fill="#ffc043"/><path d="M310 142.42s-1.26-.74-2.93-1.53c.07.55.15 1.11.24 1.66v.1q.12.75.27 1.5c0 .08 0 .16.05.24.09.45.19.9.29 1.34 0 .11 0 .22.08.33.13.53.26 1.06.41 1.58h.2l2.85-.54 3.28-.61c-.18-.58-.36-1.17-.52-1.76h-.07z" fill="#ff6937"/><path d="m311.77 150-.13-.1c-.2-.14-.4-.28-.61-.41s-.44-.25-.66-.37l-.1-.06a11.87 11.87 0 0 0-1.6-.69 45.14 45.14 0 0 0 5 11.06h7.74a43.43 43.43 0 0 1-2.89-4.45z" fill="#ffc043"/><path d="m331.21 25.32-.27-1.5zm12.91.68a16.88 16.88 0 0 1-8.9-3.08l-1.67-1.19a1.73 1.73 0 0 0-2.69 1.75l.06.29a9.82 9.82 0 0 0 .44 1.61z" fill="#ffcf70"/><path d="m369.48 36.24-9-7.28a11.53 11.53 0 0 0-6.67-2.54l-22.43-1.09a9.83 9.83 0 0 0 .58 1.28 8.1 8.1 0 0 0 1.81 2.27l3.58 3.1s4.57 3.69 6.15 6.62c1.46 2.67 1.69 6.35 2.78 9.55 1 3 2.87 4.94 3.65 9.14s-.26 6.7-.14 9.86c.12 3.39 1.22 6.9.82 9.92-.43 3.31-3.37 8.41-3.37 8.41L345 89.67a.36.36 0 0 0 0 .09 43.76 43.76 0 0 1 11.93-1.64l7.69-3.43a11.58 11.58 0 0 0 5.3-4.8L375 71V42.41a25.86 25.86 0 0 0-5.52-6.17zm-20.22 9L358 34.5a9.8 9.8 0 0 1-2.24 7.15 9.67 9.67 0 0 1-6.5 3.61zM366.65 42a13.77 13.77 0 0 1-6 6.82 13.62 13.62 0 0 1-8.81 2zm-8.38 32.76a9.74 9.74 0 0 1-4.64-5.86l12 6.84a9.59 9.59 0 0 1-7.36-.96zm3.82-7.76a13.73 13.73 0 0 1-8-4.18l17 2.84a13.57 13.57 0 0 1-9 1.34zm1.34-9.29a13.58 13.58 0 0 1-9-1.16l16.9-3.18a13.68 13.68 0 0 1-7.9 4.31z" fill="#ffcf70"/><path d="M342 68.73v11.66a11.55 11.55 0 0 1-.19 2l1.45 7.85 1.73-.52a.36.36 0 0 1 0-.09l2.24-4.19s2.94-5.1 3.37-8.41c.4-3-.7-6.53-.82-9.92-.12-3.16.92-5.65.14-9.86s-2.63-6.15-3.65-9.14c-1.09-3.2-1.32-6.88-2.78-9.55-1.58-2.93-6.15-6.62-6.15-6.62l-3.58-3.1a8.1 8.1 0 0 1-1.81-2.27 9.83 9.83 0 0 1-.58-1.28 9.82 9.82 0 0 1-.44-1.61v.1l.28 1.5 5 26.81A26.22 26.22 0 0 1 342 68.73zm21.43-11.05a13.68 13.68 0 0 0 7.94-4.34l-16.9 3.18a13.58 13.58 0 0 0 8.96 1.16zm-2.76-8.84a13.77 13.77 0 0 0 6-6.82l-14.79 8.82a13.62 13.62 0 0 0 8.79-2zM362.09 67a13.57 13.57 0 0 0 8.91-1.37l-17-2.84a13.73 13.73 0 0 0 8.09 4.21zm-6.31-25.35A9.8 9.8 0 0 0 358 34.5l-8.76 10.76a9.67 9.67 0 0 0 6.54-3.61zm2.49 33.13a9.59 9.59 0 0 0 7.37 1l-12-6.84a9.74 9.74 0 0 0 4.63 5.84z" fill="#ffc043"/><path d="m281.58 52.57 11.35-5.9a16.69 16.69 0 0 1-9.23 1.82l-2-.18a1.73 1.73 0 0 0-1.27.41 1.75 1.75 0 0 0-.19 2.46l1 1.13-.77-.91a9.31 9.31 0 0 0 1.11 1.17z" fill="#ffcf70"/><path d="m285.41 54.45 4.64.87s5.77.89 8.6 2.62c2.58 1.59 4.61 4.66 7.14 6.88 2.36 2.07 4.93 2.82 7.69 6.07s3.09 5.93 4.76 8.61c1.78 2.87 4.47 5.36 5.63 8.18 1.26 3.09 1.24 9 1.24 9l.14 4.76v.06a44.68 44.68 0 0 1 9.55-7.43l4.93-6.82a11.73 11.73 0 0 0 2-4.8 11.55 11.55 0 0 0 .19-2l.08-11.72a26.22 26.22 0 0 0-5.84-16.6c-.13-.16-.24-.34-.38-.5A25.83 25.83 0 0 0 320 42.79L308.58 41a11.42 11.42 0 0 0-7 1.15l-20 10.38a10.37 10.37 0 0 0 1.14.83 8.32 8.32 0 0 0 2.69 1.09zm44 27.37a9.68 9.68 0 0 1-6.92-2.73l13.76-.09a9.62 9.62 0 0 1-6.87 2.82zm6.51-14.35a14.65 14.65 0 0 1-16.09 6.09zm-10.51-3.06a13.65 13.65 0 0 1-8.33 3.51l13.02-11.28a13.83 13.83 0 0 1-4.72 7.77zm-5-15.19a13.87 13.87 0 0 1-1.81 8.92 13.77 13.77 0 0 1-6.6 6.18zm-11.2-2.15A10.13 10.13 0 0 1 307 60.8zm9.83 49.9 4.96 5.85zm-37.6-44.33 11.79 13.9 5.79 6.82 8.31 9.8z" fill="#ffcf70"/><path d="m307.33 83.16 11.54 13.62.13.22 5 5.85c.41-.46.83-.9 1.25-1.34v-.06l-.14-4.76s0-5.89-1.24-9c-1.16-2.82-3.85-5.31-5.63-8.18-1.67-2.68-2-5.36-4.76-8.61s-5.33-4-7.69-6.07c-2.53-2.22-4.56-5.29-7.14-6.88-2.83-1.73-8.6-2.62-8.6-2.62l-4.64-.87a8.32 8.32 0 0 1-2.69-1.05 10.37 10.37 0 0 1-1.14-.83 9.31 9.31 0 0 1-1.18-1.17l.77.91.28.33zm18.05-18.75a13.83 13.83 0 0 0 4.72-7.77l-13.05 11.28a13.65 13.65 0 0 0 8.33-3.51zm-6.78-6.27a13.87 13.87 0 0 0 1.81-8.92L312 64.32a13.77 13.77 0 0 0 6.6-6.18zm10.22 14.99a13.76 13.76 0 0 0 7.07-5.66l-16.09 6.09a13.62 13.62 0 0 0 9.02-.43zm-18.01-18.74a9.82 9.82 0 0 0-1.6-7.32L307 60.8a9.78 9.78 0 0 0 3.81-6.41zm18.57 27.43a9.62 9.62 0 0 0 6.87-2.82l-13.79.14a9.68 9.68 0 0 0 6.92 2.68z" fill="#ffc043"/><path d="M356.87 88.12a43.76 43.76 0 0 0-11.93 1.64l-1.73.52a44.56 44.56 0 0 0-18 11.2c-.42.44-.84.88-1.25 1.34a43.94 43.94 0 0 0-5.39 7.48 44.86 44.86 0 0 0-3.47 7.56c-.44 1.24-.8 2.5-1.12 3.75-.15.6-.29 1.19-.42 1.79a45 45 0 0 0-1 9.19 44.7 44.7 0 0 0 1.65 12.12c.16.59.34 1.18.52 1.76a45.33 45.33 0 0 0 3.76 8.49 43.43 43.43 0 0 0 2.89 4.45h6.69a39.63 39.63 0 0 1-8.07-39.82 38.82 38.82 0 0 1 55-21.72V92.1c-1.14-.52-2.31-1-3.52-1.44a43.67 43.67 0 0 0-14.61-2.54z" fill="#a0bff9"/><path d="M369.76 95.56a38.93 38.93 0 0 0-49.77 24 39.63 39.63 0 0 0 8.14 39.82H339a32.2 32.2 0 0 1 19.16-58.83 31.52 31.52 0 0 1 16.8 5.75v-8.43a39.09 39.09 0 0 0-5.2-2.31zm5.24 63.85v-.34l-.48.34z" fill="#d4e2fc"/><path d="M325 131.28a32.23 32.23 0 0 0 14 28.13h3.56a30.4 30.4 0 0 1 5.58-55.72 29.74 29.74 0 0 1 26.86 4.94v-2.3a31.52 31.52 0 0 0-16.8-5.75 32 32 0 0 0-33.2 30.7zm36.61 28.13h12.9l.48-.34v-12l-12.68 11.73c-.22.25-.46.42-.7.61z" fill="#870f00"/><path d="M348.17 103.69a30.4 30.4 0 0 0-5.58 55.72h19c.24-.19.48-.36.7-.57L375 147.11v-38.48a29.74 29.74 0 0 0-26.83-4.94zm-8.6 17.31a3.55 3.55 0 0 1 1 1.83 5 5 0 0 1 .14 1.05 4.81 4.81 0 0 1-1.05 0 3.51 3.51 0 0 1-1.95-.66 4.11 4.11 0 0 1-1.17-2.93 4 4 0 0 1 3.03.71zm-3.1 7.17a3.47 3.47 0 0 1 1.57-1.33 5.66 5.66 0 0 1 1-.35 5.67 5.67 0 0 1 .25 1 3.51 3.51 0 0 1-.26 2.06 4 4 0 0 1-2.61 1.74 4.13 4.13 0 0 1 .05-3.1zm4.08 15.83a5.38 5.38 0 0 1-.44 1 5.13 5.13 0 0 1-.91-.54 3.47 3.47 0 0 1-1.3-1.61 4.08 4.08 0 0 1 .56-3.1 3.94 3.94 0 0 1 2.23 2.2 3.58 3.58 0 0 1-.14 2.05zm11.2 11.22a3.38 3.38 0 0 1-2 .36 5.22 5.22 0 0 1-1-.19 5.14 5.14 0 0 1 .3-1 3.42 3.42 0 0 1 1.23-1.66 3.94 3.94 0 0 1 3.12-.2 4.06 4.06 0 0 1-1.65 2.67zm14.85-7.76a3.5 3.5 0 0 1-1.92.73 4 4 0 0 1-2.74-1.52 4 4 0 0 1 2.78-1.44 3.45 3.45 0 0 1 1.9.79 5.26 5.26 0 0 1 .77.72 5.47 5.47 0 0 1-.79.7zm2.8-21.3a3.42 3.42 0 0 1 1.75-1.09 5 5 0 0 1 1-.21 6 6 0 0 1 .09 1.06 3.54 3.54 0 0 1-.54 2 4 4 0 0 1-2.83 1.34 4.07 4.07 0 0 1 .53-3.12zm-1.4-11.57a5 5 0 0 1 .77.73 4.84 4.84 0 0 1-.79.7 3.5 3.5 0 0 1-1.92.73 4 4 0 0 1-2.74-1.52 4 4 0 0 1 2.78-1.44 3.45 3.45 0 0 1 1.9.8zm-7.31-5.59a3.55 3.55 0 0 1 1.8-1 5.19 5.19 0 0 1 1.05-.16 5 5 0 0 1 0 1.07 3.55 3.55 0 0 1-.63 2 4 4 0 0 1-2.89 1.2 4.06 4.06 0 0 1 .67-3.11zm-2.15 34.17a5 5 0 0 1 .55.91 3.49 3.49 0 0 1 .38 2 4 4 0 0 1-2 2.46 4.06 4.06 0 0 1-.93-3 3.57 3.57 0 0 1 1.1-1.75 5.14 5.14 0 0 1 .9-.61zm-1.17-30.69a5.18 5.18 0 0 1-1.05.14 3.39 3.39 0 0 1-2-.45 4.09 4.09 0 0 1-1.47-2.79 4 4 0 0 1 3.11.34 3.52 3.52 0 0 1 1.16 1.71 5.31 5.31 0 0 1 .25 1.06z"/><path d="M363.29 115.24a4 4 0 0 0 2.74 1.52A3.5 3.5 0 0 0 368 116a4.84 4.84 0 0 0 .79-.7 5 5 0 0 0-.77-.73 3.45 3.45 0 0 0-1.9-.79 4 4 0 0 0-2.83 1.46zm8.46 12.67a3.54 3.54 0 0 0 .54-2 6 6 0 0 0-.09-1.06 5 5 0 0 0-1 .21 3.42 3.42 0 0 0-1.75 1.09 4.07 4.07 0 0 0-.48 3.11 4 4 0 0 0 2.78-1.35zm-33.3 11.8a4.08 4.08 0 0 0-.56 3.1 3.47 3.47 0 0 0 1.3 1.61 5.13 5.13 0 0 0 .91.54 5.38 5.38 0 0 0 .44-1 3.58 3.58 0 0 0 .13-2.07 3.94 3.94 0 0 0-2.22-2.18zM363 110.9a3.55 3.55 0 0 0 .63-2 5 5 0 0 0 0-1.07 5.19 5.19 0 0 0-1.05.16 3.55 3.55 0 0 0-1.8 1 4.06 4.06 0 0 0-.62 3.09 4 4 0 0 0 2.84-1.18zm4.39 35.82a5.26 5.26 0 0 0-.77-.72 3.45 3.45 0 0 0-1.9-.79 4 4 0 0 0-2.78 1.44 4 4 0 0 0 2.74 1.52 3.5 3.5 0 0 0 1.92-.73 5.47 5.47 0 0 0 .79-.7zM356 109.75a4 4 0 0 0-3.11-.34 4.09 4.09 0 0 0 1.47 2.79 3.39 3.39 0 0 0 2 .45 5.18 5.18 0 0 0 1.05-.14 5.31 5.31 0 0 0-.25-1 3.52 3.52 0 0 0-1.16-1.76zm1.53 38.84a4 4 0 0 0 2-2.46 3.49 3.49 0 0 0-.38-2 5 5 0 0 0-.55-.91 5.14 5.14 0 0 0-.84.64 3.57 3.57 0 0 0-1.1 1.75 4.06 4.06 0 0 0 .87 2.98zM339 129.61a3.51 3.51 0 0 0 .26-2.06 5.67 5.67 0 0 0-.25-1 5.66 5.66 0 0 0-1 .35 3.47 3.47 0 0 0-1.57 1.33 4.13 4.13 0 0 0 0 3.16 4 4 0 0 0 2.56-1.78zm.63-5.61a4.81 4.81 0 0 0 1.05 0 5 5 0 0 0-.14-1.05 3.55 3.55 0 0 0-1-1.83 4 4 0 0 0-3.06-.66 4.11 4.11 0 0 0 1.17 2.93 3.51 3.51 0 0 0 1.98.61zm10.58 28.68a3.42 3.42 0 0 0-1.23 1.66 5.14 5.14 0 0 0-.3 1 5.22 5.22 0 0 0 1 .19 3.38 3.38 0 0 0 2-.36 4.06 4.06 0 0 0 1.58-2.72 3.94 3.94 0 0 0-3.05.23z" fill="#fff2d9"/><path d="M57.32 159.41h.33c.11-.72.21-1.44.28-2.16-.18.75-.38 1.44-.61 2.16zm-34.58-9.08 2.85-1 2-3.34a54.52 54.52 0 0 0 6.81-17.5 16.38 16.38 0 0 0 .3-2.51 54.3 54.3 0 0 1-6.16 14.71z" fill="#c14f29"/><path d="M58.9 144.43c-14.76.52-29.13 8.22-42.59 15h41c.23-.72.43-1.44.61-2.16a36.84 36.84 0 0 0 .98-12.84zm-48.12 13C21.13 145.1 33 131.69 36.32 116 24.74 112.06 11 114.26.26 123l-.26.23v36.22h10.34a2.25 2.25 0 0 1-.08-.58 2.22 2.22 0 0 1 .52-1.44z" fill="#ffe3ac"/><path d="M58.88 144.42a53.09 53.09 0 0 0-25.57 2.27l-7.72 2.65-2.85 1 5.82-9.63A54.3 54.3 0 0 0 34.72 126a54.66 54.66 0 0 0 1.6-10c-3.32 15.69-15.19 29.1-25.54 41.43a2.22 2.22 0 0 0-.52 1.4 2.25 2.25 0 0 0 .08.58h5.95c13.46-6.77 27.83-14.47 42.59-14.99z" fill="#ffc043"/><path d="m111.45 92.68 2.34.64 5.9-2.51 2.58 4.79a48.21 48.21 0 0 0 22.34.24v-2a43.072 43.072 0 0 1-5.9.66c-.93.04-1.87.07-2.81.06a51.28 51.28 0 0 1-11.21-1.43l-2.58-4.8-5.9 2.51-2.34-.63-11.55-8.15-17.07-12a30.49 30.49 0 0 1 2.2-2.8 30.33 30.33 0 0 0-4.63 5.25l17.07 12z" fill="#c14f29"/><path d="M141.51 94.31c1.05-.11 2.08-.27 3.11-.45.81-.14 1.62-.29 2.42-.47a49.06 49.06 0 0 1-5.53.92zm-39.18-12.23a2.07 2.07 0 0 1 1-.66 2 2 0 0 1 1.34.1l3.85 1.73 1.35-2.58 6.19 3.06 5.58-2.84 5.53 9.75A54 54 0 0 0 147 93.39a35.38 35.38 0 0 0-15.27-30c-14.51-10.22-33.59-8.33-44.31 3.83a30.49 30.49 0 0 0-2.2 2.8zm33.58 12.5a47.4 47.4 0 0 1-6.06-.46 47.4 47.4 0 0 0 6.06.46z" fill="#ffe3ac"/><path d="M155.49 133.32c-.06-.23-.12-.46-.17-.69-.17-.68-.32-1.35-.45-2-.05-.23-.1-.46-.14-.69a50.54 50.54 0 0 1-.7-5.37v-.69c0-.65-.06-1.3-.08-1.94h-4.08a49.67 49.67 0 0 0 1.57 16.06l2.95 1.88a34.54 34.54 0 0 0 22-12.26 33.79 33.79 0 0 1-20.13 8.26c-.26-.83-.55-1.69-.77-2.56zm2.9-33.8v-.07c.14-.32.26-.64.4-1l.08-.15c.28-.65.59-1.29.9-1.93.11-.21.2-.42.31-.63.37-.72.75-1.44 1.15-2.15a2 2 0 0 1 .13-.25l2-3.44 7.48-13.22c-.43-.28-.88-.55-1.33-.81l-10.35 18.3-1.95 3.44c-.36.63-.69 1.26-1 1.9h2.2z" fill="#c14f29"/><path d="M154.87 130.6c-.05-.23-.1-.46-.14-.69.04.23.09.46.14.69zm-.87-6.06v-.69zm1.49 8.78c-.06-.23-.12-.46-.17-.69.05.23.11.46.17.69zm2.9-33.8v-.07zm1.72-3.73zm3.98-4.9a2 2 0 0 1 0 1.36c-.56 1.66-1.13 3.34-1.69 5-.29.84-.57 1.7-.85 2.55v.09c-.26.8-.52 1.6-.77 2.41v.07a1 1 0 0 1 0 .14v.06c-.24.77-.48 1.53-.71 2.3l-.15.48-.15.53c-.15.5-.3 1-.44 1.48-.07.23-.13.46-.2.7-.17.6-.33 1.2-.49 1.8-.05.17-.09.35-.14.52s-.06.22-.08.32c-.15.57-.29 1.13-.42 1.69-.08.31-.16.62-.23.92l-.15.69c-.07.33-.15.66-.22 1 0 .17-.07.34-.11.51s-.06.27-.08.41 0 .05 0 .07c-.14.68-.26 1.36-.38 2 0 .12-.05.25-.07.38-.18 1-.32 2.05-.46 3.07a50 50 0 0 0 .07 14.35 33.79 33.79 0 0 0 20.13-8.26 36.73 36.73 0 0 0 8-9.8c9.43-16.64 4.62-37.3-10.74-46.16l-2.85 5L163.34 90a2 2 0 0 1 .75.89zm-5.19 7.46c.28-.65.59-1.29.9-1.93-.31.64-.62 1.28-.9 1.93z" fill="#ffe3ac"/><path d="M160.73 102.43v-.07zm-.73 2.5c.23-.77.47-1.53.71-2.3-.28.77-.52 1.54-.71 2.3zm-6 19.61a50.54 50.54 0 0 0 .7 5.37c0 .23.09.46.14.69.13.68.28 1.35.45 2 .05.23.11.46.17.69.22.87.46 1.73.74 2.59a50 50 0 0 1-.07-14.35v.35h-2.2c0 .64 0 1.29.08 1.94-.01.26-.01.49-.01.72zm3.29-9.54c.07-.32.15-.65.22-1l-.21 1zm-.21 1v-.07c0-.07.01.07 0 .07zm2.14-8.58zm-.69 2.5c.16-.6.32-1.2.49-1.8-.17.6-.33 1.2-.49 1.8zm3.14-10.39-.1.31c.28-.85.56-1.71.85-2.55.56-1.7 1.13-3.38 1.69-5a2 2 0 0 0 0-1.36 2 2 0 0 0-.75-.94l-2 3.44a2 2 0 0 0-.13.25c-.4.71-.78 1.42-1.15 2.15-.11.21-.2.42-.31.63-.31.64-.62 1.28-.9 1.93l-.08.15c-.14.31-.26.63-.4 1v.07z" fill="#ffc043"/><path d="M134.52 105.91a11.6 11.6 0 0 0-3.88 7l-1.42 9 20.61.06h4.08c0-1.24 0-2.48.05-3.72.06-1 .14-1.93.25-2.9s.24-1.94.4-2.9.31-1.67.49-2.49a57.51 57.51 0 0 1 2.08-7.31c.37-1 .78-2.06 1.21-3.07h-5.2a30.25 30.25 0 0 0-18.67 6.33zm22.1 12.58c0-.13 0-.26.07-.38 0 .12-.05.25-.07.38s0 .2-.05.3c-.09.54-.17 1.07-.25 1.6 0 .27-.08.55-.11.82s-.07.47-.1.7v-.35c.19-1.02.33-2.04.51-3.07zm4.05-15.85v-.06zM157.29 115c0 .17-.07.34-.11.51 0-.17.08-.34.11-.51zm1.24-5.08c-.05.18-.09.35-.14.52.05-.17.09-.35.14-.52zm.69-2.5c-.07.23-.13.46-.2.7.07-.24.13-.47.2-.7z" fill="#ffe1d6"/><path d="M156.21 121.21c0-.27.07-.55.11-.82.08-.53.16-1.06.25-1.6 0-.1 0-.2.05-.3s0-.26.07-.38c.12-.68.24-1.36.38-2v-.07c0-.14.06-.28.08-.41s.08-.34.11-.51l.21-1 .15-.69c.07-.3.15-.61.23-.92.13-.56.27-1.12.42-1.69 0-.1.05-.21.08-.32s.09-.34.14-.52c.16-.6.32-1.2.49-1.8.07-.24.13-.47.2-.7.14-.49.29-1 .44-1.48l.15-.53.15-.48c.23-.76.47-1.53.71-2.29v-.07a1 1 0 0 0 0-.14v-.07c.25-.81.51-1.61.77-2.41v-.09l.1-.31h-3.28c-.43 1-.84 2-1.21 3.07a57.51 57.51 0 0 0-2.08 7.31c-.18.82-.34 1.65-.49 2.49s-.3 1.93-.4 2.9-.19 1.94-.25 2.9a57.69 57.69 0 0 0-.05 3.72h2.2c.2-.32.24-.56.27-.79z" fill="#fabda5"/><path d="m134.52 105.91-21.34 18.32a28.39 28.39 0 0 0-9.52 17.09l21.91 3.54 3.65-23 1.42-9a11.6 11.6 0 0 1 3.88-6.95z" fill="#fff"/><path d="m144.21 131.52-8.16 6.21-2.05 4.06a.6.6 0 0 0 .57.87l6.4-.55a2.58 2.58 0 0 0 2.28-1.92l2.09-7.92a.7.7 0 0 0-1.13-.75zm7.19 6.48-.58 1.66a4.78 4.78 0 0 1-3.1 3 1 1 0 0 0-.64 1.39l2 4.66 10-1.82-1.08-3.56a3.78 3.78 0 0 0-1.6-2.12l-2-1.3-2.96-1.91zm-44.78-38.4L111 94l-5.12 1.35a5.89 5.89 0 0 0-2.11 1.05l-5.15 4 4.83.57a3.53 3.53 0 0 0 3.17-1.37zm11.71 7.29a2.37 2.37 0 0 0 .55-3l-2.07-3.55-1.22.37a3.75 3.75 0 0 0-2.54 2.73l-.68 2.92 4.12 2.08zm8.84-16.25-5.53-9.75-5.58 2.84-6.19-3.06-1.35 2.58-3.85-1.73a2 2 0 0 0-1.34-.1 2.07 2.07 0 0 0-1 .66l11.55 8.15 2.34.63 5.9-2.51 2.58 4.8a51.28 51.28 0 0 0 11.21 1.43c.94 0 1.87 0 2.81-.06s1.86-.11 2.79-.21a49.06 49.06 0 0 0 5.53-.92 54 54 0 0 1-19.87-2.75z" fill="#ffc043"/><path d="m58.61 100.48-.49-7.72-14.74-8.91.5 7.71zm117.28 52.03-1.7 1.71-.75-4.17-5.48-5.52-1.37 7.61 7.22 7.27h5.84l.47-2.63z" fill="#156a41"/><path d="m175.89 152.51 7.92-7.97-1.09-6.01-9.61 9.68.33 1.84.75 4.17z" fill="#05a357"/><path d="M61.4 110.45a3.44 3.44 0 0 0 1.92.75 4 4 0 0 0 2.76-1.49 4 4 0 0 0-2.77-1.47 3.46 3.46 0 0 0-1.91.76 5.51 5.51 0 0 0-.79.72 5.16 5.16 0 0 0 .79.73zm13.6-2.58a4.06 4.06 0 0 0-.25-3.15 3.49 3.49 0 0 0-1.66-1.22 5 5 0 0 0-1-.28 5.53 5.53 0 0 0-.17 1.06 3.54 3.54 0 0 0 .39 2 4 4 0 0 0 2.69 1.59zm138-11.81a4.13 4.13 0 0 0-.25-3.16 3.47 3.47 0 0 0-1.75-1.22 5.66 5.66 0 0 0-1-.28 5.32 5.32 0 0 0-.17 1 3.46 3.46 0 0 0 .39 2 4 4 0 0 0 2.78 1.66zM92.7 145.6a3.62 3.62 0 0 0-.39 2 5.06 5.06 0 0 0 .18 1.06 5 5 0 0 0 1-.28 3.49 3.49 0 0 0 1.66-1.22 4.06 4.06 0 0 0 .25-3.15 4 4 0 0 0-2.7 1.59z" fill="#fff2d9"/></svg>